<svg xmlns="http://www.w3.org/2000/svg" width="32" height="32" viewBox="0 0 32 32">
    <g data-name="Group 22715" transform="translate(-1320 -5455)">
        <rect width="32" height="32" rx="2" transform="translate(1320 5455)" style="fill:#f5f5f5"/>
        <path data-name="Path 17481" d="m85.822 6 3.959-3.746a.923.923 0 0 0 .3-.7.923.923 0 0 0-.3-.7l-.61-.569a1.1 1.1 0 0 0-1.475 0L82.384 5.3a.958.958 0 0 0 0 1.4l5.316 5.015a1.1 1.1 0 0 0 1.475 0l.611-.578a.918.918 0 0 0 .3-.694.943.943 0 0 0-.3-.7z" transform="translate(1249.918 5465)" style="fill:#202223"/>
    </g>
</svg>
