<svg width="45" height="61" viewBox="0 0 45 61" fill="none" xmlns="http://www.w3.org/2000/svg">
  <path
    d="M19.9702 59.2697C3.01875 34.8875 0 32.3332 0 23.2769C0 10.9697 9.86899 0.984614 22.2923 0.984614C34.5995 0.984614 44.5846 10.9697 44.5846 23.2769C44.5846 32.3332 41.4498 34.8875 24.4983 59.2697C23.4534 60.8952 21.0151 60.8952 19.9702 59.2697ZM22.2923 32.5654C27.401 32.5654 31.5808 28.5017 31.5808 23.2769C31.5808 18.1683 27.401 13.9885 22.2923 13.9885C17.0675 13.9885 13.0038 18.1683 13.0038 23.2769C13.0038 28.5017 17.0675 32.5654 22.2923 32.5654Z"
    fill="#FF8888"/>
</svg>
